<svg width="15" height="16" viewBox="0 0 15 16" fill="none" xmlns="http://www.w3.org/2000/svg">
<path d="M0.499991 8C0.499991 11.866 3.634 15 7.49999 15C11.366 15 14.5 11.866 14.5 8C14.5 4.13401 11.366 1 7.49999 1C3.634 1 0.499991 4.13401 0.499991 8Z" stroke="#2D3436"/>
<path fill-rule="evenodd" clip-rule="evenodd" d="M12.793 2.68644C12.2852 2.18057 11.7052 1.74703 11.07 1.40255C10.0085 0.826929 8.7924 0.500027 7.49999 0.500027C6.20761 0.500027 4.99157 0.826916 3.93005 1.40252C3.93004 1.40253 3.93003 1.40252 3.93003 1.40251C3.93003 1.4025 3.93002 1.4025 3.93001 1.4025C1.58935 2.67174 -7.62939e-06 5.15025 -7.62939e-06 7.99998C-7.62939e-06 8.02997 0.000168305 8.05991 0.000519197 8.08981C0.00860788 8.77903 0.769479 9.11629 1.28567 8.65952C2.53714 7.5521 3.44564 6.01905 3.81605 4.2685C3.94081 3.67888 4.49862 3.25357 5.09566 3.33573C5.88281 3.44405 6.68665 3.50003 7.50357 3.50003C8.31823 3.50003 9.1199 3.44436 9.90496 3.33662C10.5018 3.25471 11.0593 3.67991 11.1841 4.2693C11.5545 6.01968 12.463 7.55257 13.7143 8.65991C14.2305 9.11669 14.9913 8.77946 14.9995 8.09025C14.9998 8.06022 15 8.03015 15 8.00003C15 5.92373 14.1563 4.04448 12.793 2.68644ZM3.09516 10.4935C3.0669 10.5291 3.06849 10.58 3.09861 10.614C4.13003 11.7799 5.5639 12.0811 6.80107 11.5204C7.21967 11.3307 7.71588 11.3338 8.13166 11.5296C9.37909 12.117 10.835 11.8218 11.8784 10.6409C11.9091 10.6061 11.9107 10.5542 11.8818 10.5179C10.8703 9.24474 9.40342 8.87482 8.12518 9.41118C7.73352 9.57552 7.28041 9.57276 6.89105 9.40304C5.60363 8.84184 4.11681 9.20639 3.09516 10.4935Z" fill="#2D3436"/>
</svg>
